<svg version="1.0" xmlns="http://www.w3.org/2000/svg"  viewBox="0 0 690 1280"><path d="M322.5.6c-2.2.2-8.5.9-14 1.5C206.3 12.8 113.9 69.2 57 155.5c-26.1 39.5-44 84.8-51.9 131C1.3 309.1.5 319 .6 346c0 29.6 1.8 47.4 7.4 72.8 24.6 112 103 204.8 209 247.2 18.9 7.5 53.6 17.5 67 19.2 1.5.2 2.4.9 2.3 1.8-.1.8-2.5 16.5-5.3 34.8-2.9 18.3-5 33.9-4.7 34.5.5 1.4 13.9 3.7 36.7 6.4 18.7 2.2 74.1 2.5 93.8.4 12.8-1.3 13.2-1.4 13.2-3.7 0-2.5-8.4-61.1-10-69.1-.4-2.6-.6-5.1-.2-5.4.4-.3 6.3-1.8 13.2-3.3 14.1-3.2 35.8-10 50-15.6 47.5-19 92.9-50.5 126.6-87.8 48.6-53.8 77.8-116.9 87.6-189.4 1.8-13.2 2.2-21.3 2.2-42.8.1-27-.7-36.9-4.5-59.5-7.9-46.2-25.8-91.5-51.9-131-27.4-41.7-63.5-76.8-106.2-103.6-42-26.3-88.2-42.5-141.3-49.5C375 1 331-.3 322.5.6zm57.3 69.9c48.7 6.5 93.3 24.6 131.3 53.3 55.5 41.9 93.5 103 105.8 170.1 3.7 19.8 4.5 29.5 4.5 51.6 0 22.3-.9 32.5-4.5 51.5-18 95.2-85.2 174.5-176.7 208.5-44.1 16.4-96 20.9-143.8 12.5-54-9.5-103.4-34.9-143.2-73.4C106.1 499 78.7 443.8 69.8 377c-1.6-12.3-1.6-50.8.1-63 5.6-42.5 17.3-76.9 37.6-110.9 37-61.9 97.8-107.6 166.7-125.5 18.8-4.9 36.1-7.7 54.8-9 10-.7 39.9.4 50.8 1.9z"/><path d="M302.6 108.5c-34.3 5.6-68.6 21.4-95.6 44-31.7 26.7-56.8 64.5-70.9 107-9.1 27.7-12.9 48.9-13.7 78.5-2.8 92.8 41.5 178.5 113.7 220.3 19.2 11 42.3 19.5 63.4 23.3 15.1 2.6 59.5 2.3 59.5-.5 0-.4-2.8-1.3-6.2-2-10.1-2-26.4-7.8-38.3-13.5-64-30.7-109.1-93.2-124-171.6-14.2-75.1 6.1-156.7 53-213.5 29.8-36 67.7-59.5 113-70.1l3-.7-3.5-.9c-6.4-1.7-43.6-1.9-53.4-.3zM269.5 798.4c-.3 1.7-1.6 11.4-3 21.6-14 104.6-20.4 180.9-20.8 248l-.2 30.4 3.5.7c28.2 6.1 55.1 9 87.8 9.6 36.9.7 66.6-1.7 100.2-8 6.4-1.2 6.4-1.2 7.3-5.2 1.2-5.5 0-82-1.8-113.5-3.1-54.9-7-98.8-14.1-159-1.3-11.8-2.6-22-2.8-22.6-.3-.7-3.5-.7-10.7.2-41.7 5-90.4 3.9-131.6-3.1l-13.3-2.2-.5 3.1zM247.2 1148.7c.4 6 1.2 17.9 1.8 26.5 1.2 18.6 3 28.8 7.1 40.6 13 37.1 44.4 61.3 83 63.9 36.7 2.4 71.7-17.7 88.4-50.7 7.7-15.2 11.1-30.2 12.6-55 .5-9.1 1.3-20.8 1.8-26 .5-5.2.8-9.6.7-9.8-.2-.1-6.3.9-13.7 2.2-54.8 10-113.4 10-166.5.1-7.2-1.4-13.7-2.5-14.5-2.5-1.2 0-1.3 1.8-.7 10.7z"/></svg>